PathFileType	4	(X/Y/Z)	C:/Users/beibeiliu/ov580/test_trc/User3\sequence.16_training_dense_right.trc
DataRate	CameraRate	NumFrames	NumMarkers	Units	OrigDataRate	OrigDataStartFrame	OrigNumFrames
120	120	18	19	mm	120	1	58
Frame#	Time	ThumbCMC			ThumbMCP			ThumbIP			ThumbTip			IndexMCP			IndexPIP			IndexTip			MiddleMCP			MiddlePIP			MiddleTip			RingMCP			RingPIP			RingTip			PinkyMCP			PinkyPIP			PinkyTip			BackHand1			BackHand2			BackHand3	
		X0	Y0	Z0	X1	Y1	Z1	X2	Y2	Z2	X3	Y3	Z3	X4	Y4	Z4	X5	Y5	Z5	X6	Y6	Z6	X7	Y7	Z7	X8	Y8	Z8	X9	Y9	Z9	X10	Y10	Z10	X11	Y11	Z11	X12	Y12	Z12	X13	Y13	Z13	X14	Y14	Z14	X15	Y15	Z15	X16	Y16	Z16	X17	Y17	Z17	X18	Y18	Z18	
0	0	148.38	-28.2102	-18.9134	123.436	-8.64191	-48.2688	97.0065	-10.7469	-68.4707	75.1079	-23.3987	-74.0732	146.507	-65.8291	-86.7207	135.612	-58.2947	-116.754	127.929	-45.6901	-135.646	130.346	-86.7026	-83.1488	126.589	-87.1245	-114.048	110.726	-78.5005	-143.465	110.471	-82.2714	-76.6489	97.2272	-75.4299	-103.05	79.8049	-53.3525	-117.479	90.2977	-68.3204	-62.1082	79.6489	-42.9321	-69.4892	83.4295	-21.5364	-51.159	125.795	-84.953	-25.3095	131.589	-81.11	6.07392	156.653	-67.5335	-16.3841	
1	0.00833333	148.001	-27.7311	-23.6243	124.043	-11.1008	-44.8506	97.1529	-12.0749	-68.2385	74.7674	-18.3785	-75.233	146.165	-64.6356	-86.3706	138.14	-58.0237	-117.304	122.885	-44.9667	-136.138	133.287	-83.5322	-83.2967	125.614	-85.2444	-117.794	110.84	-77.3417	-145.456	112.159	-81.018	-79.1356	94.6274	-77.5966	-99.2187	81.6196	-52.7368	-117.582	91.1993	-67.3052	-60.9119	80.2427	-40.9851	-68.8896	90.1179	-20.6523	-50.3974	125.705	-83.7104	-25.3182	130.663	-80.0433	5.58627	157.31	-68.5352	-19.3486	
2	0.0166667	150.206	-24.9901	-19.4917	122.498	-11.8271	-46.4048	97.358	-9.58396	-68.5093	75.9587	-20.4404	-74.385	145.629	-64.2069	-86.9217	140.427	-57.797	-114.661	124.175	-45.9602	-134.075	132.29	-84.2078	-88.5046	125.868	-84.3233	-117.711	109.76	-76.0552	-146.659	109.794	-81.3245	-77.3306	98.3012	-75.4963	-100.622	81.5581	-52.7888	-116.392	91.032	-67.0623	-63.1404	80.0525	-42.9035	-68.8826	87.4871	-21.4814	-53.3394	124.826	-83.9907	-26.4884	128.018	-82.3139	3.38269	155.983	-69.1187	-17.686	
3	0.025	149.775	-25.4317	-22.8701	123.993	-8.72096	-46.1874	96.6524	-10.8298	-69.2451	73.6219	-19.1911	-75.8178	148.017	-63.5992	-86.3894	137.939	-56.1246	-118.124	122.386	-45.342	-135.082	128.939	-85.8201	-85.6036	121.662	-85.9405	-117.757	107.999	-76.8475	-144.226	110.986	-81.991	-79.4743	95.0674	-74.475	-103.804	82.2847	-51.6873	-116.973	91.1305	-67.8301	-62.1818	80.557	-44.9876	-70.1515	88.4016	-19.6246	-50.4436	127.844	-84.563	-27.178	128.468	-79.521	5.31176	157.885	-67.6445	-22.3033	
4	0.0333333	150.362	-25.3647	-24.6224	123.589	-10.172	-46.4961	97.5477	-9.83691	-68.5894	73.5432	-20.7489	-74.8193	145.461	-64.9185	-89.3872	140.096	-57.706	-116.248	122.708	-45.3829	-134.258	133.488	-83.0213	-83.4883	123.465	-84.5472	-118.002	111.89	-76.7881	-144.05	111.796	-80.3161	-74.4809	97.2801	-73.2481	-104.518	81.1552	-51.286	-118.102	89.8711	-69.3648	-59.0999	80.4711	-41.5886	-70.4589	87.6168	-20.8786	-50.5024	127.212	-83.4022	-23.7666	127.097	-82.3992	6.25988	153.817	-69.1623	-17.3477	
5	0.0416667	148.59	-25.4485	-24.229	122.5	-12.2688	-44.9902	98.8453	-10.4817	-63.438	75.7316	-21.0084	-71.8808	148.143	-61.6604	-88.2309	135.533	-57.421	-115.938	126.192	-40.665	-137.948	131.81	-83.5819	-82.5829	123.777	-86.1088	-113.897	113.331	-75.609	-142.167	112.753	-81.2186	-77.3017	96.3609	-77.544	-100.944	84.3686	-54.5747	-115.112	87.9381	-70.2775	-61.2438	79.9986	-48.245	-71.8367	83.2224	-20.2996	-51.811	123.205	-85.1668	-24.9065	129.01	-80.9156	3.29462	153.589	-69.1348	-20.7577	
6	0.05	146.438	-25.7468	-20.2163	123.099	-8.78564	-44.4639	96.5527	-10.2172	-66.6302	73.5486	-22.4478	-71.9195	147.541	-60.1806	-86.5026	140.387	-53.0262	-116.378	122.871	-43.1665	-134.143	136.222	-81.4029	-83.1736	127.899	-82.8037	-113.819	112.744	-71.9349	-142.284	111.752	-84.5921	-74.7079	97.2349	-79.4976	-99.4557	81.483	-57.3465	-112.238	91.9996	-74.4184	-57.5359	75.175	-52.7089	-70.42	78.5229	-24.9289	-55.843	129.074	-84.1361	-21.8586	132.785	-79.8118	5.97188	155.904	-65.9216	-19.4012	
7	0.0583333	147.382	-22.1751	-13.7255	123.321	-8.37132	-42.1053	98.4804	-11.0276	-63.5924	75.5413	-27.6438	-70.4286	150.64	-56.601	-85.2956	138.224	-51.3846	-114.678	124.154	-39.1019	-135.148	136.626	-80.0932	-83.052	129.906	-79.7136	-114.039	109.439	-67.8312	-142.551	113.789	-84.7196	-73.7165	98.4696	-80.1394	-98.5842	85.0262	-56.7547	-110.268	94.4273	-78.8332	-54.7709	78.1353	-63.4919	-72.404	71.7813	-32.5777	-62.3205	131.795	-84.7421	-25.0688	134.835	-80.8996	9.05602	159.421	-62.5109	-15.2387	
8	0.0666667	143.408	-22.591	-14.1218	122.306	-6.26597	-38.6034	100.372	-11.1331	-59.4626	78.6112	-28.3142	-67.4696	150.562	-51.6616	-83.3533	143.464	-46.5485	-112.012	128.426	-38.1817	-130.003	140.916	-75.7878	-80.2911	132.74	-74.5557	-114.663	117.521	-62.8547	-136.738	122.963	-80.8373	-69.4515	108.629	-78.9928	-97.0795	85.3887	-54.461	-106.978	97.8564	-81.9254	-55.5786	81.9774	-66.8247	-73.6863	69.1272	-42.9137	-64.7598	132.829	-85.0998	-21.9476	134.994	-82.1704	7.382	157.518	-59.5577	-11.8343	
9	0.075	142.257	-15.5248	-6.43875	117.649	-4.29448	-35.4033	97.8499	-10.163	-57.8487	80.007	-34.351	-65.5072	152.251	-45.0672	-80.0486	148.595	-36.8752	-106.299	129.44	-29.2128	-129.33	148.9	-66.6827	-81.7373	139.168	-66.6094	-113.337	122.229	-55.6118	-136.447	129.163	-77.6431	-68.6148	116.933	-75.2958	-96.9843	91.8788	-54.7278	-105.315	102.927	-84.056	-55.3318	86.1111	-71.4331	-73.939	72.7822	-46.1785	-69.0988	139.669	-75.7374	-19.5423	139.248	-79.2477	6.92476	159.42	-55.5306	-8.67001	
10	0.0833333	137.191	-14.1345	-6.39105	112.56	-1.63949	-35.6257	91.5494	-10.2921	-58.0527	80.5456	-39.1944	-61.5711	154.796	-33.6403	-74.5296	147.556	-26.7085	-107.499	131.45	-25.2442	-126.11	151.104	-59.9256	-79.3307	145.525	-61.6752	-108.697	125.029	-51.5978	-134.975	134.807	-74.3012	-71.4633	122.481	-72.4272	-97.2576	95.6704	-55.7039	-105.628	108.634	-83.0453	-55.5292	91.6216	-72.3661	-73.8195	72.5758	-47.5074	-67.0646	144.502	-71.0592	-17.1327	146.155	-74.3366	11.3818	158.671	-45.9497	-6.71577	
11	0.0916667	129.827	-7.56366	0.517087	107.17	-3.27522	-29.0458	87.6415	-15.0867	-57.6518	80.7647	-44.041	-61.4195	152.79	-21.3274	-74.4276	145.316	-18.3083	-104.2	127.555	-13.6146	-125.33	154.713	-46.528	-74.4231	150.465	-49.1906	-108.684	131.081	-40.8525	-135.389	140.947	-65.3812	-70.2013	128.412	-65.9552	-96.5114	99.0548	-51.8976	-106.777	117.906	-75.2537	-59.7862	94.8822	-69.9808	-75.1824	73.5007	-53.4596	-65.9405	147.961	-66.4643	-21.269	149.041	-67.2741	10.5191	158.704	-33.5719	-8.76576	
12	0.1	120.422	-1.11537	3.07528	97.9315	-1.20572	-26.5393	83.2798	-13.1386	-51.169	82.3471	-40.5432	-60.835	149.051	-5.7965	-72.4918	140.265	-3.5104	-99.8551	124.983	1.80575	-118.229	157.863	-30.0603	-76.1313	151.793	-33.171	-107.864	132.957	-29.0051	-132.705	146.304	-50.1779	-70.5935	132.66	-53.4886	-98.3908	105.099	-43.9976	-108.789	126.534	-68.8851	-60.5534	105.474	-63.6723	-76.5495	79.8081	-52.9789	-68.2325	154.208	-53.4582	-18.7416	151.682	-57.5654	10.5597	156.705	-22.2761	-1.55422	
13	0.108333	110.382	-1.41096	4.69218	87.3663	-0.332853	-24.0851	81.2136	-13.0496	-51.1889	84.7813	-36.5965	-62.8536	138.899	9.36878	-63.8479	131.361	14.8507	-93.8046	111.756	16.0024	-116.944	155.405	-11.7918	-67.8109	153.826	-6.87462	-99.8951	132.907	-7.17882	-131.456	150.746	-31.0509	-70.0555	139.965	-26.5468	-94.9706	114.074	-32.5499	-108.451	137.681	-54.4359	-58.8776	114.718	-52.8066	-79.0221	90.8779	-50.606	-73.7447	155.126	-36.2507	-13.9277	155.03	-43.6245	10.5473	148.743	-6.76247	3.54211	
14	0.116667	96.891	-1.89405	5.87305	75.7268	-3.73636	-24.3288	79.0721	-13.8517	-54.6172	97.9382	-33.7547	-70.5097	123.878	30.6837	-60.7458	115.489	32.3406	-89.7845	99.7518	30.3561	-109.866	145.765	18.9816	-62.8663	147.633	23.2515	-92.5923	129.831	21.0341	-125.545	151.499	-4.93639	-65.7495	141.013	-2.91845	-95.9705	115.338	-14.4476	-109.749	146.86	-30.4661	-59.5063	132.214	-36.9348	-83.1041	101.934	-46.7641	-79.1257	156.102	-17.8463	-13.9163	154.756	-24.795	14.1868	135.113	5.614	3.99041	
15	0.125	88.5117	-12.6703	0.922339	76.5441	-18.3314	-31.7554	82.1842	-22.08	-62.7317	105.997	-30.8366	-76.2468	106.509	34.8059	-57.2393	97.5856	37.644	-87.3786	86.7281	30.6193	-109.851	134.358	33.8511	-59.8056	131.297	44.6026	-89.6783	122.28	40.2607	-120.096	143.534	16.1453	-62.1637	144.418	15.1908	-90.8571	125.219	-3.86514	-112.186	153.591	-12.6771	-60.6605	142.94	-22.0654	-84.5542	120.631	-41.933	-85.7407	153.982	-3.67209	-10.697	155.032	-14.8235	12.611	122.544	5.38991	8.066	
16	0.133333	91.3148	-29.0152	-4.66681	79.0532	-34.4379	-40.4261	93.3538	-34.7107	-70.2144	117.763	-39.7505	-80.9807	98.4264	23.2306	-63.0968	89.2162	24.6947	-91.1591	85.7984	12.4632	-117.994	126.046	27.2107	-59.4088	124.417	38.3931	-89.7401	123.024	32.1889	-122.926	140.836	10.2034	-60.8049	139.618	12.0233	-94.7888	128.202	-8.88351	-116.402	157.333	-14.0297	-60.1114	146.111	-25.9098	-86.7752	129.959	-49.5983	-87.4166	148.566	-4.31546	-11.276	151.953	-17.3832	14.4478	117.578	-3.90474	4.76347	
17	0.141667	89.618	-40.6831	-9.30494	85.9093	-51.7179	-44.006	94.6124	-58.6834	-71.9385	121.043	-60.8704	-81.1752	99.7947	3.68655	-72.3074	91.8908	1.17384	-100.67	86.8234	-13.104	-122.597	127.333	10.798	-71.2921	125.025	17.474	-102.725	118.391	9.65623	-133.744	139.699	-3.26557	-69.7411	141.861	-8.78788	-102.524	130.8	-28.7583	-119.031	156.072	-27.3636	-66.9886	149.821	-45.1001	-88.7487	139.356	-70.7629	-87.7402	149.349	-13.523	-16.5821	151.185	-24.0481	12.6821	113.741	-12.845	-0.786536	
